<mxfile host="app.diagrams.net" modified="2021-05-26T22:48:55.011Z" agent="5.0 (Windows NT 10.0; Win64; x64) AppleWebKit/537.36 (KHTML, like Gecko) Chrome/90.0.4430.212 Safari/537.36" etag="qHzKV59ZcffCSUh7h5rz" version="14.7.1" type="github">
  <diagram id="c87_UyCaCKkXGZexplx1" name="Page-1">
    <mxGraphModel dx="1422" dy="762" grid="1" gridSize="10" guides="1" tooltips="1" connect="1" arrows="1" fold="1" page="1" pageScale="1" pageWidth="850" pageHeight="1100" math="0" shadow="0">
      <root>
        <mxCell id="0" />
        <mxCell id="1" parent="0" />
        <mxCell id="35YWyhPQQzH-a1Wu1mB6-1" value="" style="edgeStyle=orthogonalEdgeStyle;rounded=0;orthogonalLoop=1;jettySize=auto;html=1;" edge="1" parent="1" source="35YWyhPQQzH-a1Wu1mB6-4" target="35YWyhPQQzH-a1Wu1mB6-9">
          <mxGeometry relative="1" as="geometry">
            <Array as="points">
              <mxPoint x="720" y="220" />
              <mxPoint x="720" y="320" />
            </Array>
          </mxGeometry>
        </mxCell>
        <mxCell id="35YWyhPQQzH-a1Wu1mB6-2" value="encrypt the password using salt and hach&amp;nbsp;" style="edgeLabel;html=1;align=center;verticalAlign=middle;resizable=0;points=[];" vertex="1" connectable="0" parent="35YWyhPQQzH-a1Wu1mB6-1">
          <mxGeometry x="-0.8522" y="3" relative="1" as="geometry">
            <mxPoint x="58" y="53" as="offset" />
          </mxGeometry>
        </mxCell>
        <mxCell id="35YWyhPQQzH-a1Wu1mB6-3" value="&#xa;&#xa;&lt;span style=&quot;color: rgb(0, 0, 0); font-family: helvetica; font-size: 11px; font-style: normal; font-weight: 400; letter-spacing: normal; text-align: center; text-indent: 0px; text-transform: none; word-spacing: 0px; background-color: rgb(255, 255, 255); display: inline; float: none;&quot;&gt;encrypt the password using salt and hach&amp;nbsp;&lt;/span&gt;&#xa;&#xa;" style="edgeStyle=orthogonalEdgeStyle;rounded=0;orthogonalLoop=1;jettySize=auto;html=1;" edge="1" parent="1" source="35YWyhPQQzH-a1Wu1mB6-4" target="35YWyhPQQzH-a1Wu1mB6-9">
          <mxGeometry y="10" relative="1" as="geometry">
            <Array as="points">
              <mxPoint x="470" y="220" />
              <mxPoint x="470" y="320" />
            </Array>
            <mxPoint as="offset" />
          </mxGeometry>
        </mxCell>
        <mxCell id="35YWyhPQQzH-a1Wu1mB6-4" value="index.js" style="rounded=0;whiteSpace=wrap;html=1;" vertex="1" parent="1">
          <mxGeometry x="535" y="170" width="120" height="60" as="geometry" />
        </mxCell>
        <mxCell id="35YWyhPQQzH-a1Wu1mB6-5" value="" style="edgeStyle=orthogonalEdgeStyle;rounded=0;orthogonalLoop=1;jettySize=auto;html=1;entryX=0.855;entryY=0;entryDx=0;entryDy=4.35;entryPerimeter=0;" edge="1" parent="1" source="35YWyhPQQzH-a1Wu1mB6-9" target="35YWyhPQQzH-a1Wu1mB6-27">
          <mxGeometry relative="1" as="geometry">
            <Array as="points">
              <mxPoint x="631" y="405" />
            </Array>
          </mxGeometry>
        </mxCell>
        <mxCell id="35YWyhPQQzH-a1Wu1mB6-6" value="save username and encrypted password&amp;nbsp;" style="edgeLabel;html=1;align=center;verticalAlign=middle;resizable=0;points=[];" vertex="1" connectable="0" parent="35YWyhPQQzH-a1Wu1mB6-5">
          <mxGeometry x="0.819" y="2" relative="1" as="geometry">
            <mxPoint x="38" y="-24" as="offset" />
          </mxGeometry>
        </mxCell>
        <mxCell id="35YWyhPQQzH-a1Wu1mB6-7" value="" style="edgeStyle=orthogonalEdgeStyle;rounded=0;orthogonalLoop=1;jettySize=auto;html=1;entryX=0.145;entryY=0;entryDx=0;entryDy=4.35;entryPerimeter=0;" edge="1" parent="1" source="35YWyhPQQzH-a1Wu1mB6-9" target="35YWyhPQQzH-a1Wu1mB6-27">
          <mxGeometry relative="1" as="geometry">
            <Array as="points">
              <mxPoint x="560" y="410" />
            </Array>
          </mxGeometry>
        </mxCell>
        <mxCell id="35YWyhPQQzH-a1Wu1mB6-8" value="check&amp;nbsp; if username and password sent as saved" style="edgeLabel;html=1;align=center;verticalAlign=middle;resizable=0;points=[];" vertex="1" connectable="0" parent="35YWyhPQQzH-a1Wu1mB6-7">
          <mxGeometry x="-0.1955" y="1" relative="1" as="geometry">
            <mxPoint x="-100" y="4" as="offset" />
          </mxGeometry>
        </mxCell>
        <mxCell id="35YWyhPQQzH-a1Wu1mB6-9" value="server.js" style="rounded=0;whiteSpace=wrap;html=1;" vertex="1" parent="1">
          <mxGeometry x="535" y="290" width="120" height="60" as="geometry" />
        </mxCell>
        <mxCell id="35YWyhPQQzH-a1Wu1mB6-10" style="edgeStyle=orthogonalEdgeStyle;rounded=0;orthogonalLoop=1;jettySize=auto;html=1;" edge="1" parent="1">
          <mxGeometry relative="1" as="geometry">
            <mxPoint x="440" y="90.0031985044584" as="sourcePoint" />
            <mxPoint x="545" y="170" as="targetPoint" />
            <Array as="points">
              <mxPoint x="440" y="130" />
              <mxPoint x="545" y="130" />
            </Array>
          </mxGeometry>
        </mxCell>
        <mxCell id="35YWyhPQQzH-a1Wu1mB6-11" value="send username and password&amp;nbsp;" style="edgeLabel;html=1;align=center;verticalAlign=middle;resizable=0;points=[];" vertex="1" connectable="0" parent="35YWyhPQQzH-a1Wu1mB6-10">
          <mxGeometry x="0.2861" y="-2" relative="1" as="geometry">
            <mxPoint x="-109" y="8" as="offset" />
          </mxGeometry>
        </mxCell>
        <mxCell id="35YWyhPQQzH-a1Wu1mB6-12" value="/signin" style="ellipse;whiteSpace=wrap;html=1;" vertex="1" parent="1">
          <mxGeometry x="390" y="30" width="110" height="70" as="geometry" />
        </mxCell>
        <mxCell id="35YWyhPQQzH-a1Wu1mB6-13" style="edgeStyle=orthogonalEdgeStyle;rounded=0;orthogonalLoop=1;jettySize=auto;html=1;entryX=0.842;entryY=0.017;entryDx=0;entryDy=0;entryPerimeter=0;" edge="1" parent="1" source="35YWyhPQQzH-a1Wu1mB6-15" target="35YWyhPQQzH-a1Wu1mB6-4">
          <mxGeometry relative="1" as="geometry">
            <mxPoint x="640" y="160" as="targetPoint" />
            <Array as="points">
              <mxPoint x="755" y="130" />
              <mxPoint x="636" y="130" />
            </Array>
          </mxGeometry>
        </mxCell>
        <mxCell id="35YWyhPQQzH-a1Wu1mB6-14" value="register username and passowrd" style="edgeLabel;html=1;align=center;verticalAlign=middle;resizable=0;points=[];" vertex="1" connectable="0" parent="35YWyhPQQzH-a1Wu1mB6-13">
          <mxGeometry x="-0.3477" y="3" relative="1" as="geometry">
            <mxPoint x="47" y="7" as="offset" />
          </mxGeometry>
        </mxCell>
        <mxCell id="35YWyhPQQzH-a1Wu1mB6-15" value="/signup" style="ellipse;whiteSpace=wrap;html=1;" vertex="1" parent="1">
          <mxGeometry x="710" y="30" width="100" height="70" as="geometry" />
        </mxCell>
        <mxCell id="35YWyhPQQzH-a1Wu1mB6-16" style="edgeStyle=orthogonalEdgeStyle;rounded=0;orthogonalLoop=1;jettySize=auto;html=1;entryX=0;entryY=0.25;entryDx=0;entryDy=0;" edge="1" parent="1" source="35YWyhPQQzH-a1Wu1mB6-27" target="35YWyhPQQzH-a1Wu1mB6-4">
          <mxGeometry relative="1" as="geometry">
            <Array as="points">
              <mxPoint x="320" y="515" />
              <mxPoint x="320" y="185" />
            </Array>
          </mxGeometry>
        </mxCell>
        <mxCell id="35YWyhPQQzH-a1Wu1mB6-17" value="give authentication when matches records" style="edgeLabel;html=1;align=center;verticalAlign=middle;resizable=0;points=[];" vertex="1" connectable="0" parent="35YWyhPQQzH-a1Wu1mB6-16">
          <mxGeometry x="0.1169" y="-1" relative="1" as="geometry">
            <mxPoint as="offset" />
          </mxGeometry>
        </mxCell>
        <mxCell id="35YWyhPQQzH-a1Wu1mB6-18" style="edgeStyle=orthogonalEdgeStyle;rounded=0;orthogonalLoop=1;jettySize=auto;html=1;entryX=0.5;entryY=0;entryDx=0;entryDy=0;" edge="1" parent="1" source="35YWyhPQQzH-a1Wu1mB6-27" target="35YWyhPQQzH-a1Wu1mB6-34">
          <mxGeometry relative="1" as="geometry">
            <Array as="points">
              <mxPoint x="250" y="530" />
            </Array>
          </mxGeometry>
        </mxCell>
        <mxCell id="35YWyhPQQzH-a1Wu1mB6-19" value="read only" style="edgeLabel;html=1;align=center;verticalAlign=middle;resizable=0;points=[];" vertex="1" connectable="0" parent="35YWyhPQQzH-a1Wu1mB6-18">
          <mxGeometry x="0.1747" relative="1" as="geometry">
            <mxPoint x="-21" y="10" as="offset" />
          </mxGeometry>
        </mxCell>
        <mxCell id="35YWyhPQQzH-a1Wu1mB6-20" style="edgeStyle=orthogonalEdgeStyle;rounded=0;orthogonalLoop=1;jettySize=auto;html=1;" edge="1" parent="1" source="35YWyhPQQzH-a1Wu1mB6-27" target="35YWyhPQQzH-a1Wu1mB6-35">
          <mxGeometry relative="1" as="geometry">
            <Array as="points">
              <mxPoint x="420" y="540" />
            </Array>
          </mxGeometry>
        </mxCell>
        <mxCell id="35YWyhPQQzH-a1Wu1mB6-21" value="Text" style="edgeLabel;html=1;align=center;verticalAlign=middle;resizable=0;points=[];" vertex="1" connectable="0" parent="35YWyhPQQzH-a1Wu1mB6-20">
          <mxGeometry x="0.2889" relative="1" as="geometry">
            <mxPoint as="offset" />
          </mxGeometry>
        </mxCell>
        <mxCell id="35YWyhPQQzH-a1Wu1mB6-22" value="creat &amp;amp; read" style="edgeLabel;html=1;align=center;verticalAlign=middle;resizable=0;points=[];" vertex="1" connectable="0" parent="35YWyhPQQzH-a1Wu1mB6-20">
          <mxGeometry x="0.2622" y="3" relative="1" as="geometry">
            <mxPoint x="-1" as="offset" />
          </mxGeometry>
        </mxCell>
        <mxCell id="35YWyhPQQzH-a1Wu1mB6-23" style="edgeStyle=orthogonalEdgeStyle;rounded=0;orthogonalLoop=1;jettySize=auto;html=1;exitX=0.5;exitY=1;exitDx=0;exitDy=0;exitPerimeter=0;entryX=0.5;entryY=0;entryDx=0;entryDy=0;" edge="1" parent="1" source="35YWyhPQQzH-a1Wu1mB6-27" target="35YWyhPQQzH-a1Wu1mB6-36">
          <mxGeometry relative="1" as="geometry">
            <Array as="points">
              <mxPoint x="600" y="570" />
              <mxPoint x="600" y="630" />
            </Array>
          </mxGeometry>
        </mxCell>
        <mxCell id="35YWyhPQQzH-a1Wu1mB6-24" value="create, edit and read" style="edgeLabel;html=1;align=center;verticalAlign=middle;resizable=0;points=[];" vertex="1" connectable="0" parent="35YWyhPQQzH-a1Wu1mB6-23">
          <mxGeometry x="-0.2857" y="1" relative="1" as="geometry">
            <mxPoint as="offset" />
          </mxGeometry>
        </mxCell>
        <mxCell id="35YWyhPQQzH-a1Wu1mB6-25" style="edgeStyle=orthogonalEdgeStyle;rounded=0;orthogonalLoop=1;jettySize=auto;html=1;" edge="1" parent="1" source="35YWyhPQQzH-a1Wu1mB6-27" target="35YWyhPQQzH-a1Wu1mB6-37">
          <mxGeometry relative="1" as="geometry">
            <Array as="points">
              <mxPoint x="780" y="530" />
            </Array>
          </mxGeometry>
        </mxCell>
        <mxCell id="35YWyhPQQzH-a1Wu1mB6-26" value="create, update delete and read" style="edgeLabel;html=1;align=center;verticalAlign=middle;resizable=0;points=[];" vertex="1" connectable="0" parent="35YWyhPQQzH-a1Wu1mB6-25">
          <mxGeometry x="-0.2851" y="-3" relative="1" as="geometry">
            <mxPoint y="17" as="offset" />
          </mxGeometry>
        </mxCell>
        <mxCell id="35YWyhPQQzH-a1Wu1mB6-27" value="Database" style="shape=cylinder3;whiteSpace=wrap;html=1;boundedLbl=1;backgroundOutline=1;size=15;" vertex="1" parent="1">
          <mxGeometry x="545" y="460" width="100" height="110" as="geometry" />
        </mxCell>
        <mxCell id="35YWyhPQQzH-a1Wu1mB6-28" value="basic middleware" style="rounded=0;whiteSpace=wrap;html=1;" vertex="1" parent="1">
          <mxGeometry x="850" y="450" width="120" height="60" as="geometry" />
        </mxCell>
        <mxCell id="35YWyhPQQzH-a1Wu1mB6-29" value="&lt;br&gt;&lt;br&gt;&lt;span style=&quot;color: rgb(0 , 0 , 0) ; font-family: &amp;#34;helvetica&amp;#34; ; font-size: 12px ; font-style: normal ; font-weight: 400 ; letter-spacing: normal ; text-align: center ; text-indent: 0px ; text-transform: none ; word-spacing: 0px ; background-color: rgb(248 , 249 , 250) ; display: inline ; float: none&quot;&gt;bearer middleware&lt;/span&gt;&lt;br&gt;" style="rounded=0;whiteSpace=wrap;html=1;" vertex="1" parent="1">
          <mxGeometry x="850" y="540" width="120" height="60" as="geometry" />
        </mxCell>
        <mxCell id="35YWyhPQQzH-a1Wu1mB6-30" value="" style="endArrow=classic;startArrow=classic;html=1;exitX=0;exitY=0.75;exitDx=0;exitDy=0;entryX=1;entryY=1;entryDx=0;entryDy=0;" edge="1" parent="1" source="35YWyhPQQzH-a1Wu1mB6-28" target="35YWyhPQQzH-a1Wu1mB6-9">
          <mxGeometry width="50" height="50" relative="1" as="geometry">
            <mxPoint x="570" y="300" as="sourcePoint" />
            <mxPoint x="620" y="250" as="targetPoint" />
          </mxGeometry>
        </mxCell>
        <mxCell id="35YWyhPQQzH-a1Wu1mB6-31" value="username and password verification" style="edgeLabel;html=1;align=center;verticalAlign=middle;resizable=0;points=[];" vertex="1" connectable="0" parent="35YWyhPQQzH-a1Wu1mB6-30">
          <mxGeometry x="-0.1951" y="-1" relative="1" as="geometry">
            <mxPoint x="98" as="offset" />
          </mxGeometry>
        </mxCell>
        <mxCell id="35YWyhPQQzH-a1Wu1mB6-32" value="" style="endArrow=classic;startArrow=classic;html=1;exitX=0;exitY=0.75;exitDx=0;exitDy=0;entryX=0.917;entryY=1.05;entryDx=0;entryDy=0;entryPerimeter=0;" edge="1" parent="1" source="35YWyhPQQzH-a1Wu1mB6-29" target="35YWyhPQQzH-a1Wu1mB6-9">
          <mxGeometry width="50" height="50" relative="1" as="geometry">
            <mxPoint x="570" y="300" as="sourcePoint" />
            <mxPoint x="620" y="250" as="targetPoint" />
          </mxGeometry>
        </mxCell>
        <mxCell id="35YWyhPQQzH-a1Wu1mB6-33" value="token verification" style="edgeLabel;html=1;align=center;verticalAlign=middle;resizable=0;points=[];" vertex="1" connectable="0" parent="35YWyhPQQzH-a1Wu1mB6-32">
          <mxGeometry x="-0.1673" y="1" relative="1" as="geometry">
            <mxPoint x="-34" as="offset" />
          </mxGeometry>
        </mxCell>
        <mxCell id="35YWyhPQQzH-a1Wu1mB6-34" value="user" style="ellipse;whiteSpace=wrap;html=1;" vertex="1" parent="1">
          <mxGeometry x="190" y="640" width="120" height="80" as="geometry" />
        </mxCell>
        <mxCell id="35YWyhPQQzH-a1Wu1mB6-35" value="writer" style="ellipse;whiteSpace=wrap;html=1;" vertex="1" parent="1">
          <mxGeometry x="360" y="640" width="120" height="80" as="geometry" />
        </mxCell>
        <mxCell id="35YWyhPQQzH-a1Wu1mB6-36" value="editor" style="ellipse;whiteSpace=wrap;html=1;" vertex="1" parent="1">
          <mxGeometry x="535" y="630" width="120" height="80" as="geometry" />
        </mxCell>
        <mxCell id="35YWyhPQQzH-a1Wu1mB6-37" value="admin" style="ellipse;whiteSpace=wrap;html=1;" vertex="1" parent="1">
          <mxGeometry x="720" y="630" width="120" height="80" as="geometry" />
        </mxCell>
      </root>
    </mxGraphModel>
  </diagram>
</mxfile>
